<svg width="109" height="25" viewBox="0 0 109 25" fill="none" xmlns="http://www.w3.org/2000/svg">
<g clip-path="url(#clip0_2352_16824)">
<path d="M44.1283 5.03722V2.37402H36.6926H34.8922H33.7207V20.0174H36.6926V12.6999H43.4268V10.0367H36.6926V5.03722H44.1283Z" fill="black"/>
<path d="M72.6379 12.3448V20.0166H75.4438V11.6384C75.4438 9.69301 74.4337 6.11084 70.1547 6.11084C66.811 6.11084 65.5249 8.1271 65.5249 8.1271L65.3133 6.36459H62.8242V20.0166H65.6676V13.0626C65.6676 10.0222 67.281 8.58887 69.4532 8.58887C72.0346 8.58887 72.6379 10.6371 72.6379 12.3448Z" fill="black"/>
<path d="M103.269 18.842L109 6.33984H106.075L101.906 15.9045L97.4627 6.33984H94.3809L100.414 18.9906C100.283 19.2969 99.4783 21.1303 98.8867 21.7201C98.3699 22.2207 97.6563 22.4202 96.8028 22.4202L97.2172 24.7856C97.8418 24.8049 98.464 24.6989 99.0451 24.474C99.6262 24.2491 100.154 23.9101 100.596 23.478C101.913 22.175 102.998 19.4318 102.998 19.4318L103.231 18.9266H103.309L103.269 18.842Z" fill="black"/>
<path d="M53.3999 6.1377H52.6446C50.7953 6.1377 49.0218 6.8559 47.7142 8.13431C46.4065 9.41271 45.6719 11.1466 45.6719 12.9546V13.4735C45.6725 15.281 46.4074 17.0144 47.715 18.2923C49.0226 19.5702 50.7957 20.2881 52.6446 20.2881H53.3999C55.2487 20.2881 57.0219 19.5702 58.3295 18.2923C59.637 17.0144 60.3719 15.281 60.3725 13.4735V12.9546C60.3725 11.1466 59.6379 9.41271 58.3303 8.13431C57.0227 6.8559 55.2491 6.1377 53.3999 6.1377ZM57.5456 13.3843C57.5456 14.5363 57.0775 15.641 56.2444 16.4556C55.4112 17.2701 54.2812 17.7278 53.1029 17.7278H52.9579C51.7797 17.7278 50.6496 17.2701 49.8165 16.4556C48.9833 15.641 48.5152 14.5363 48.5152 13.3843V13.0414C48.5152 11.8895 48.9833 10.7847 49.8165 9.97017C50.6496 9.15562 51.7797 8.69802 52.9579 8.69802H53.0889C54.2671 8.69802 55.3972 9.15562 56.2303 9.97017C57.0635 10.7847 57.5316 11.8895 57.5316 13.0414L57.5456 13.3843Z" fill="black"/>
<path d="M89.6185 1.49756V7.62635C88.3855 6.66181 86.8532 6.13689 85.274 6.13815H84.8555C83.0064 6.13876 81.2332 6.85716 79.9257 8.13544C78.6182 9.41372 77.8834 11.1473 77.8828 12.955V13.474C77.8834 15.2815 78.6183 17.0148 79.9259 18.2927C81.2334 19.5707 83.0066 20.2885 84.8555 20.2885H85.274C87.0289 20.2911 88.7197 19.6443 90.0067 18.478L90.2372 19.9891H92.4806V1.49756H89.6185ZM89.7588 13.3848C89.7588 14.5367 89.2908 15.6415 88.4576 16.4561C87.6244 17.2706 86.4944 17.7282 85.3161 17.7282H85.1712C83.9929 17.7282 82.8629 17.2706 82.0297 16.4561C81.1965 15.6415 80.7285 14.5367 80.7285 13.3848V13.0419C80.7285 11.89 81.1965 10.7852 82.0297 9.97064C82.8629 9.15609 83.9929 8.69848 85.1712 8.69848H85.3161C86.4944 8.69848 87.6244 9.15609 88.4576 9.97064C89.2908 10.7852 89.7588 11.89 89.7588 13.0419V13.3848Z" fill="black"/>
<path d="M15.4152 19.5032V16.5999C15.415 16.4396 15.3717 16.2821 15.2897 16.1433C15.2076 16.0044 15.0896 15.8892 14.9475 15.809L12.3755 14.3574C12.2333 14.2771 12.072 14.2349 11.9078 14.2349C11.7436 14.2349 11.5823 14.2771 11.4401 14.3574L8.86805 15.809C8.726 15.8892 8.60802 16.0044 8.52594 16.1433C8.44386 16.2821 8.40056 16.4396 8.40039 16.5999V19.5032C8.40015 19.6639 8.44325 19.8219 8.52536 19.9611C8.60746 20.1004 8.72566 20.216 8.86805 20.2964L11.4401 21.748C11.5823 21.8283 11.7436 21.8705 11.9078 21.8705C12.072 21.8705 12.2333 21.8283 12.3755 21.748L14.9475 20.2964C15.0899 20.216 15.2081 20.1004 15.2902 19.9611C15.3723 19.8219 15.4154 19.6639 15.4152 19.5032Z" fill="#08A835"/>
<path d="M23.8156 19.5032V16.5999C23.8154 16.4396 23.7721 16.2821 23.69 16.1433C23.608 16.0044 23.49 15.8892 23.3479 15.809L20.7759 14.3574C20.6337 14.2771 20.4724 14.2349 20.3082 14.2349C20.144 14.2349 19.9827 14.2771 19.8405 14.3574L17.2685 15.809C17.1264 15.8892 17.0084 16.0044 16.9264 16.1433C16.8443 16.2821 16.801 16.4396 16.8008 16.5999V19.5032C16.8006 19.6639 16.8437 19.8219 16.9258 19.9611C17.0079 20.1004 17.1261 20.216 17.2685 20.2964L19.8405 21.748C19.9827 21.8283 20.144 21.8705 20.3082 21.8705C20.4724 21.8705 20.6337 21.8283 20.7759 21.748L23.3479 20.2964C23.4903 20.216 23.6085 20.1004 23.6906 19.9611C23.7727 19.8219 23.8158 19.6639 23.8156 19.5032Z" fill="#08A835"/>
<path d="M11.2238 12.3865V9.48325C11.2245 9.32212 11.1816 9.16368 11.0994 9.02398C11.0173 8.88428 10.8989 8.76828 10.7562 8.68771L8.18404 7.24067C8.04185 7.16042 7.88057 7.11816 7.71638 7.11816C7.5522 7.11816 7.39092 7.16042 7.24873 7.24067L4.67664 8.68771C4.5346 8.76789 4.41662 8.88318 4.33454 9.022C4.25245 9.16083 4.20916 9.31832 4.20899 9.47867V12.3819C4.20875 12.5426 4.25185 12.7006 4.33395 12.8399C4.41605 12.9791 4.53426 13.0948 4.67664 13.1752L7.24873 14.6313C7.39092 14.7116 7.5522 14.7538 7.71638 14.7538C7.88057 14.7538 8.04185 14.7116 8.18404 14.6313L10.7562 13.1797C10.8986 13.0994 11.0168 12.9837 11.0989 12.8444C11.181 12.7052 11.2241 12.5472 11.2238 12.3865Z" fill="#08A835"/>
<path d="M19.6164 12.3865V9.48325C19.6163 9.32289 19.573 9.1654 19.4909 9.02658C19.4088 8.88775 19.2908 8.77246 19.1488 8.69229L16.5767 7.24067C16.4345 7.16042 16.2732 7.11816 16.109 7.11816C15.9449 7.11816 15.7836 7.16042 15.6414 7.24067L13.0693 8.68771C12.9272 8.76789 12.8093 8.88318 12.7272 9.022C12.6451 9.16083 12.6018 9.31832 12.6016 9.47867V12.3819C12.6014 12.5426 12.6445 12.7006 12.7266 12.8399C12.8087 12.9791 12.9269 13.0948 13.0693 13.1752L15.6414 14.6268C15.7836 14.707 15.9449 14.7493 16.109 14.7493C16.2732 14.7493 16.4345 14.707 16.5767 14.6268L19.1488 13.1752C19.2905 13.0952 19.4082 12.9802 19.4903 12.8419C19.5724 12.7035 19.6158 12.5464 19.6164 12.3865Z" fill="#08A835"/>
<path d="M7.01479 19.5032V16.5999C7.01462 16.4396 6.97133 16.2821 6.88924 16.1433C6.80716 16.0044 6.68918 15.8892 6.54714 15.809L3.97505 14.3574C3.83286 14.2771 3.67158 14.2349 3.5074 14.2349C3.34322 14.2349 3.18193 14.2771 3.03974 14.3574L0.467654 15.809C0.32561 15.8892 0.20763 16.0044 0.125548 16.1433C0.043466 16.2821 0.000169251 16.4396 1.0163e-06 16.5999V19.5032C-0.000241325 19.6639 0.0428607 19.8219 0.124963 19.9611C0.207065 20.1004 0.325267 20.216 0.467654 20.2964L3.03974 21.748C3.18193 21.8283 3.34322 21.8705 3.5074 21.8705C3.67158 21.8705 3.83286 21.8283 3.97505 21.748L6.54714 20.2964C6.68953 20.216 6.80773 20.1004 6.88983 19.9611C6.97193 19.8219 7.01503 19.6639 7.01479 19.5032Z" fill="#08A835"/>
<path d="M15.4152 5.26977V2.36655C15.415 2.20619 15.3717 2.0487 15.2897 1.90988C15.2076 1.77105 15.0896 1.65576 14.9475 1.57559L12.3755 0.123972C12.2333 0.043716 12.072 0.00146484 11.9078 0.00146484C11.7436 0.00146484 11.5823 0.043716 11.4401 0.123972L8.86805 1.57559C8.726 1.65576 8.60802 1.77105 8.52594 1.90988C8.44386 2.0487 8.40056 2.20619 8.40039 2.36655V5.26977C8.40015 5.43051 8.44325 5.58848 8.52536 5.72774C8.60746 5.867 8.72566 5.98265 8.86805 6.06302L11.4401 7.51463C11.5823 7.59489 11.7436 7.63714 11.9078 7.63714C12.072 7.63714 12.2333 7.59489 12.3755 7.51463L14.9475 6.06302C15.0899 5.98265 15.2081 5.867 15.2902 5.72774C15.3723 5.58848 15.4154 5.43051 15.4152 5.26977Z" fill="black"/>
</g>
<defs>
<clipPath id="clip0_2352_16824">
<rect width="109" height="25" fill="white"/>
</clipPath>
</defs>
</svg>
